<?xml version="1.0" encoding="utf-8"?>
<!-- Generator: Adobe Illustrator 23.0.1, SVG Export Plug-In . SVG Version: 6.00 Build 0)  -->
<svg version="1.1" id="Layer_1" xmlns="http://www.w3.org/2000/svg" xmlns:xlink="http://www.w3.org/1999/xlink" x="0px" y="0px"
	 width="40px" height="40px" viewBox="0 0 40 40" style="enable-background:new 0 0 40 40;" xml:space="preserve">
<style type="text/css">
	.st0{fill:#CCCCCC;}
</style>
<path class="st0" d="M28.1,22.3L28.1,22.3c0,0-3.1-1.7-4.4-2.7c-0.4-0.4-1.2-0.4-1.4-0.4c-0.7,0-1.1,0.5-1.1,0.5l0,0
	c0,0-0.3,0.3-0.8,0.7c-0.6,0.5-1.3,0.5-1.9-0.2c-0.9-0.7-5.2-5.8-6.6-7.4c-0.3-0.4-0.5-0.7-0.5-1.1c0.1-0.7,0.9-1.2,1.2-1.5l0.1-0.1
	c0.9-0.6,1-1.6,0.7-2.3c-0.3-0.4-2-4.1-2.2-4.5C10.8,3,10.5,2.5,9.6,2.5C9,2.5,6.4,3.6,6.4,3.6C5.5,4.2,4,5.3,4.1,7.6
	c0.1,2.8,2.3,6.9,7,12.5c4.8,6.1,10.4,8.8,12.8,8.7c2-0.1,4-2.7,4.5-4C29,23.6,28.6,22.7,28.1,22.3z"/>
<path class="st0" d="M23.9,2.8c-2.5-0.4-4.8-0.3-7.1,0.3c-1.1,0.3-1.8,1.5-1.4,2.6l0,0C15.5,5.9,15.8,6.1,16,6
	c2.5-0.9,5.2-1.1,8.1-0.5c6.1,1.4,10.7,6.6,11.3,12.8c0.8,8.7-6,16-14.5,16c-8,0-14.6-6.5-14.6-14.6c0-0.3,0-0.6,0-0.9l-0.6-0.6
	c-0.7-0.7-1.9-0.3-2,0.7C3.6,21.5,4,24.2,5.4,27c2.8,5.7,8.5,9.7,14.9,9.8C31,37,39.3,28,38,17.4C37,10,31.2,4.1,23.9,2.8z"/>
</svg>
