<?xml version="1.0" encoding="utf-8"?>
<!-- Generator: Adobe Illustrator 23.0.1, SVG Export Plug-In . SVG Version: 6.00 Build 0)  -->
<svg version="1.1" id="Layer_1" xmlns="http://www.w3.org/2000/svg" xmlns:xlink="http://www.w3.org/1999/xlink" x="0px" y="0px"
	 width="40px" height="40px" viewBox="0 0 40 40" style="enable-background:new 0 0 40 40;" xml:space="preserve">
<style type="text/css">
	.st0{fill:#CCCCCC;}
</style>
<g>
	<g>
		<polygon class="st0" points="29.5,12.4 29.5,22.6 34.7,17.4 		"/>
	</g>
	<g>
		<path class="st0" d="M20.7,3.4c-0.6-0.6-1.6-0.6-2.2,0l-2.2,2.2H23L20.7,3.4z"/>
	</g>
	<g>
		<polygon class="st0" points="9.7,12.4 5.3,16.8 4.5,17.4 9.7,22.6 		"/>
	</g>
	<g>
		<polygon class="st0" points="13.1,28.1 13.1,27.9 4.4,19.3 4.4,19.4 4.4,19.8 4.4,20.3 4.4,36.6 		"/>
	</g>
	<g>
		<path class="st0" d="M32.8,36.5L32.8,36.5L20.7,24.3c-0.6-0.6-1.6-0.6-2.2,0L6.1,36.8l0,0l-0.7,0.7h28.3l-0.3-0.3L32.8,36.5z"/>
	</g>
	<g>
		<polygon class="st0" points="26.2,27.9 26.3,28.1 26.3,28.1 34.8,36.6 34.8,19.8 34.8,19.4 34.8,19.1 		"/>
	</g>
	<g>
		<path class="st0" d="M17.7,23.5c0.6-0.6,1.3-0.9,2-0.9s1.4,0.3,2,0.9l0.4,0.4l3,3l3-3v-13l-4-4H11v17l3,3L17.7,23.5z M15.1,10.9
			h9.2v1.3h-9.2C15.1,12.3,15.1,10.9,15.1,10.9z M15.1,15.1h6.6v1.3h-6.6V15.1z M15.1,18.9h9.2v1.4h-9.2L15.1,18.9z"/>
	</g>
</g>
</svg>
