<?xml version="1.0" encoding="utf-8"?>
<!-- Generator: Adobe Illustrator 23.0.1, SVG Export Plug-In . SVG Version: 6.00 Build 0)  -->
<svg version="1.1" id="Layer_1" xmlns="http://www.w3.org/2000/svg" xmlns:xlink="http://www.w3.org/1999/xlink" x="0px" y="0px"
	 width="40px" height="40px" viewBox="0 0 40 40" style="enable-background:new 0 0 40 40;" xml:space="preserve">
<style type="text/css">
	.st0{fill:#CCCCCC;}
</style>
<path class="st0" d="M20.6,37c2.4-0.3,4.5-2.8,5.8-6.5c-1.9-0.4-3.9-0.7-5.8-0.7C20.6,29.8,20.6,37,20.6,37z"/>
<path class="st0" d="M24.4,36.4c0.1,0,0.3-0.1,0.4-0.1s0.2-0.1,0.4-0.1c0.1,0,0.3-0.1,0.4-0.1s0.2-0.1,0.3-0.1
	c0.1-0.1,0.3-0.1,0.4-0.2c0.1-0.1,0.2-0.1,0.3-0.2c0.1-0.1,0.3-0.1,0.4-0.2c0.1-0.1,0.2-0.1,0.3-0.2c0.1-0.1,0.3-0.1,0.4-0.2
	c0.1-0.1,0.2-0.1,0.3-0.2c0.1-0.1,0.2-0.1,0.4-0.2c0.1-0.1,0.2-0.1,0.3-0.2c0.1-0.1,0.2-0.2,0.4-0.2c0.1-0.1,0.2-0.1,0.3-0.2
	c0.1-0.1,0.2-0.2,0.3-0.3c0.1-0.1,0.2-0.2,0.3-0.2c0.1-0.1,0.2-0.2,0.3-0.3c0.1-0.1,0.2-0.2,0.3-0.3c0.1-0.1,0.2-0.2,0.3-0.3
	c0.1-0.1,0.2-0.2,0.3-0.3c0,0,0,0,0-0.1c-1.2-0.6-2.5-1.1-3.8-1.5c-0.7,2.2-1.9,4.2-3.6,5.8h0.1C24.2,36.5,24.3,36.5,24.4,36.4z"/>
<path class="st0" d="M35.7,22H29c0,2.6-0.4,5.2-1.1,7.7c1.5,0.4,2.9,1,4.2,1.7C34.3,28.7,35.5,25.4,35.7,22z"/>
<path class="st0" d="M20.6,20.8h7.3c0-2.5-0.4-5-1.1-7.5c-2,0.5-4.1,0.7-6.2,0.7C20.6,14,20.6,20.8,20.6,20.8z"/>
<path class="st0" d="M20.6,5.8V13c2,0,3.9-0.3,5.8-0.7C25.1,8.6,23,6.1,20.6,5.8z"/>
<path class="st0" d="M20.6,28.7c2.1,0,4.1,0.3,6.2,0.7c0.7-2.4,1.1-4.9,1.1-7.5h-7.3C20.6,21.9,20.6,28.7,20.6,28.7z"/>
<path class="st0" d="M32.1,11.4c-1.3,0.7-2.8,1.3-4.2,1.7c0.7,2.5,1.1,5.1,1.1,7.7h6.7C35.5,17.4,34.3,14.1,32.1,11.4z"/>
<path class="st0" d="M31.3,10.6C31.3,10.5,31.3,10.5,31.3,10.6c-0.1-0.1-0.2-0.2-0.3-0.3c-0.1-0.1-0.2-0.2-0.3-0.3
	c-0.1-0.1-0.2-0.2-0.3-0.3c-0.1-0.1-0.2-0.2-0.3-0.3c-0.1-0.1-0.2-0.2-0.3-0.2c-0.1-0.1-0.2-0.2-0.3-0.3c-0.1-0.1-0.2-0.2-0.3-0.2
	c-0.1-0.1-0.2-0.2-0.4-0.2c-0.1-0.1-0.2-0.1-0.3-0.2c-0.1-0.1-0.2-0.2-0.4-0.2C28,8,27.9,8,27.8,7.9c-0.1-0.1-0.3-0.1-0.4-0.2
	s-0.2-0.1-0.3-0.2c-0.1-0.1-0.3-0.1-0.4-0.2s-0.2-0.1-0.3-0.2C26.2,7,26,6.9,25.9,6.9s-0.2-0.1-0.3-0.1c-0.1-0.1-0.3-0.1-0.4-0.1
	S25,6.6,24.8,6.6c-0.1,0-0.3-0.1-0.4-0.1S24.2,6.4,24,6.4h-0.1c1.7,1.6,2.9,3.6,3.6,5.8C28.8,11.7,30.1,11.2,31.3,10.6z"/>
<path class="st0" d="M4.3,20.8H11c0-2.6,0.4-5.2,1.1-7.7c-1.5-0.4-2.9-1-4.2-1.7C5.7,14.1,4.5,17.4,4.3,20.8z"/>
<path class="st0" d="M19.4,37v-7.2c-2,0-3.9,0.3-5.8,0.7C14.9,34.2,17,36.7,19.4,37z"/>
<path class="st0" d="M19.4,22h-7.3c0,2.5,0.4,5,1.1,7.5c2-0.5,4.1-0.7,6.2-0.7V22z"/>
<path class="st0" d="M19.4,5.8c-2.4,0.3-4.5,2.8-5.8,6.5c1.9,0.4,3.9,0.7,5.8,0.7V5.8z"/>
<path class="st0" d="M19.4,14.1c-2.1,0-4.1-0.3-6.2-0.7c-0.7,2.4-1.1,4.9-1.1,7.5h7.3V14.1z"/>
<path class="st0" d="M16.1,6.2H16c-0.1,0-0.2,0.1-0.4,0.1c-0.1,0-0.3,0.1-0.4,0.1c-0.1,0-0.2,0.1-0.4,0.1c-0.1,0-0.3,0.1-0.4,0.1
	c-0.1,0-0.2,0.1-0.3,0.1c-0.1,0.1-0.3,0.1-0.4,0.2C13.6,7,13.5,7,13.4,7.1S13.1,7.2,13,7.3c-0.1,0.1-0.2,0.1-0.3,0.2
	s-0.2,0.1-0.4,0.2C12.1,7.8,12,7.9,11.9,8c-0.1,0.1-0.2,0.1-0.4,0.2c-0.1,0.1-0.2,0.1-0.3,0.2c-0.1,0.1-0.2,0.2-0.4,0.2
	c-0.1,0.1-0.2,0.1-0.3,0.2c-0.1,0.1-0.2,0.2-0.3,0.3C10.1,9.2,10,9.3,9.9,9.4C9.8,9.5,9.7,9.6,9.6,9.7C9.5,9.8,9.4,9.8,9.3,9.9
	C9.2,10,9.1,10.1,9,10.2c-0.1,0.1-0.2,0.2-0.3,0.3c0,0,0,0,0,0.1c1.2,0.6,2.5,1.1,3.8,1.5C13.2,9.8,14.4,7.8,16.1,6.2z"/>
<path class="st0" d="M9,32.6c0.1,0.1,0.2,0.2,0.3,0.3C9.4,33,9.5,33,9.6,33.1s0.2,0.2,0.3,0.3s0.2,0.2,0.3,0.2
	c0.1,0.1,0.2,0.2,0.3,0.3s0.2,0.1,0.3,0.2c0.1,0.1,0.2,0.2,0.4,0.2c0.1,0.1,0.2,0.1,0.3,0.2c0.1,0.1,0.2,0.2,0.4,0.2
	c0.1,0.1,0.2,0.1,0.3,0.2c0.1,0.1,0.3,0.1,0.4,0.2c0.1,0.1,0.2,0.1,0.3,0.2c0.1,0.1,0.3,0.1,0.4,0.2c0.1,0.1,0.2,0.1,0.3,0.2
	c0.1,0.1,0.3,0.1,0.4,0.2c0.1,0,0.2,0.1,0.3,0.1c0.1,0.1,0.3,0.1,0.4,0.1c0.1,0,0.2,0.1,0.4,0.1c0.1,0,0.3,0.1,0.4,0.1
	c0.1,0,0.2,0.1,0.4,0.1H16c-1.7-1.6-2.9-3.6-3.6-5.8c-1.3,0.4-2.6,0.8-3.8,1.5c0,0,0,0,0,0.1C8.8,32.4,8.9,32.5,9,32.6z"/>
<path class="st0" d="M7.9,31.4c1.3-0.7,2.8-1.3,4.2-1.7C11.4,27.2,11,24.6,11,22H4.3C4.5,25.4,5.7,28.7,7.9,31.4z"/>
</svg>
